<svg width="32" height="26" viewBox="0 0 32 26" fill="none" xmlns="http://www.w3.org/2000/svg">
<path d="M20.3077 7.41538V4.72307C20.3077 4.00902 20.024 3.32423 19.5191 2.81932C19.0142 2.31441 18.3294 2.03076 17.6154 2.03076H4.69231C3.97826 2.03076 3.29346 2.31441 2.78856 2.81932C2.28365 3.32423 2 4.00902 2 4.72307V20.8769C2 21.591 2.28365 22.2758 2.78856 22.7807C3.29346 23.2856 3.97826 23.5692 4.69231 23.5692H17.6154C18.3294 23.5692 19.0142 23.2856 19.5191 22.7807C20.024 22.2758 20.3077 21.591 20.3077 20.8769V18.1846" stroke="white" stroke-width="3" stroke-linecap="round" stroke-linejoin="round"/>
<path d="M24.6154 7.41537L30 12.8L24.6154 18.1846" stroke="white" stroke-width="3" stroke-linecap="round" stroke-linejoin="round"/>
<path d="M11.625 12.8H30" stroke="white" stroke-width="3" stroke-linecap="round" stroke-linejoin="round"/>
</svg>
