<svg width="38" height="28" viewBox="0 0 38 28" fill="none" xmlns="http://www.w3.org/2000/svg">
<path d="M5.7 11.8308C7.79594 11.8308 9.5 10.1267 9.5 8.03077C9.5 5.93483 7.79594 4.23077 5.7 4.23077C3.60406 4.23077 1.9 5.93483 1.9 8.03077C1.9 10.1267 3.60406 11.8308 5.7 11.8308ZM32.3 11.8308C34.3959 11.8308 36.1 10.1267 36.1 8.03077C36.1 5.93483 34.3959 4.23077 32.3 4.23077C30.2041 4.23077 28.5 5.93483 28.5 8.03077C28.5 10.1267 30.2041 11.8308 32.3 11.8308ZM34.2 13.7308H30.4C29.355 13.7308 28.4109 14.1523 27.7222 14.8351C30.115 16.1473 31.8131 18.5164 32.1812 21.3308H36.1C37.1509 21.3308 38 20.4817 38 19.4308V17.5308C38 15.4348 36.2959 13.7308 34.2 13.7308ZM19 13.7308C22.6753 13.7308 25.65 10.7561 25.65 7.08077C25.65 3.40546 22.6753 0.430771 19 0.430771C15.3247 0.430771 12.35 3.40546 12.35 7.08077C12.35 10.7561 15.3247 13.7308 19 13.7308ZM23.56 15.6308H23.0672C21.8322 16.2245 20.4606 16.5808 19 16.5808C17.5394 16.5808 16.1737 16.2245 14.9328 15.6308H14.44C10.6637 15.6308 7.6 18.6945 7.6 22.4708V24.1808C7.6 25.7542 8.87656 27.0308 10.45 27.0308H27.55C29.1234 27.0308 30.4 25.7542 30.4 24.1808V22.4708C30.4 18.6945 27.3362 15.6308 23.56 15.6308ZM10.2778 14.8351C9.58906 14.1523 8.645 13.7308 7.6 13.7308H3.8C1.70406 13.7308 0 15.4348 0 17.5308V19.4308C0 20.4817 0.849062 21.3308 1.9 21.3308H5.81281C6.18687 18.5164 7.885 16.1473 10.2778 14.8351Z" fill="#FFEEEE"/>
</svg>
