<svg width="32" height="31" viewBox="0 0 32 31" fill="none" xmlns="http://www.w3.org/2000/svg">
<path d="M11.3241 29.4308H8.20677C4.7635 29.4308 1.97218 26.6394 1.97218 23.1962V13.3886C1.97218 11.2084 3.11095 9.18668 4.97537 8.05672L12.7686 3.33355C14.7548 2.12984 17.2452 2.12984 19.2314 3.33355L27.0246 8.05672C28.8891 9.18668 30.0278 11.2084 30.0278 13.3886V23.1962C30.0278 26.6394 27.2364 29.4308 23.7932 29.4308H20.6759M11.3241 29.4308V23.1962C11.3241 20.6137 13.4175 18.5202 16 18.5202C18.5825 18.5202 20.6759 20.6137 20.6759 23.1962V29.4308M11.3241 29.4308H20.6759" stroke="white" stroke-width="3" stroke-linecap="round" stroke-linejoin="round"/>
</svg>
